<?xml version="1.0" encoding="UTF-8"?>
<svg id="_Слой_2" data-name="Слой 2" xmlns="http://www.w3.org/2000/svg" viewBox="0 0 70.65 71.77">
  <defs>
    <style>
      .cls-1 {
        fill: #fff;
        fill-rule: evenodd;
        stroke-width: 0px;
      }
    </style>
  </defs>
  <g id="Layer_1" data-name="Layer 1">
    <path class="cls-1" d="M36.24,10.78v5.36c0,.5-.41.91-.91.91s-.91-.41-.91-.91v-5.36c-6.42.23-12.21,2.93-16.45,7.18-4.24,4.24-6.94,10.03-7.18,16.45h5.36c.5,0,.91.41.91.91s-.41.91-.91.91h-5.36c.23,6.42,2.93,12.21,7.18,16.45,4.24,4.24,10.03,6.94,16.45,7.18v-5.36c0-.5.41-.91.91-.91s.91.41.91.91v5.36c6.42-.23,12.21-2.93,16.45-7.18,4.24-4.24,6.94-10.03,7.18-16.45h-5.36c-.5,0-.91-.41-.91-.91s.41-.91.91-.91h5.36c-.23-6.42-2.93-12.21-7.18-16.45-4.24-4.24-10.03-6.94-16.45-7.18ZM31.18,66.79c.5.07.85.52.79,1.02-.07.5-.52.85-1.02.79-1-.13-1.98-.3-2.96-.52-.99-.22-1.96-.48-2.9-.79-.48-.15-.74-.67-.59-1.15s.67-.74,1.15-.59c.9.29,1.82.54,2.74.74.91.21,1.85.38,2.8.5h0ZM22.27,64.26c.46.21.66.75.46,1.21-.21.46-.75.66-1.21.46-.9-.41-1.79-.86-2.68-1.36-.89-.5-1.74-1.04-2.55-1.6-.41-.29-.52-.86-.23-1.27.29-.41.86-.52,1.27-.23.79.54,1.59,1.05,2.41,1.51.8.45,1.65.88,2.54,1.29h0ZM14.45,59.24c.38.33.42.91.09,1.29-.33.38-.91.42-1.29.09-.8-.7-1.57-1.44-2.32-2.23-.74-.79-1.44-1.6-2.1-2.44-.31-.39-.24-.97.16-1.28.39-.31.97-.24,1.28.16.63.81,1.29,1.58,1.98,2.31.7.73,1.43,1.43,2.2,2.11h0ZM37.28,64.95l2.83-2.04c.41-.29.98-.2,1.27.21.1.14.15.29.17.45l.1.95c6.6-1.42,12.39-5.02,16.57-10.01,4.35-5.19,6.98-11.88,6.98-19.18,0-8.25-3.34-15.72-8.75-21.12-5.41-5.41-12.88-8.75-21.12-8.75s-15.72,3.34-21.12,8.75c-5.41,5.4-8.75,12.87-8.75,21.12,0,2.77.38,5.45,1.08,7.99.73,2.62,1.8,5.11,3.18,7.39.24.41.13.93-.24,1.2l-2.84,2.23-.03.03h-.01s0,.01,0,.01h-.01s0,.01,0,.01h-.02s-.04.04-.04.04h-.01s0,.01,0,.01h-.01s0,.01,0,.01c-.04.02-.08.04-.13.05l-.14.05h-.04s-.09,0-.09,0h-.02s-.08-.01-.08-.01h-.01s-.02,0-.02,0h-.02s0,0,0,0h-.01s-.02,0-.02,0h0s-.01,0-.01,0h0s-.01,0-.01,0c-.02,0-.04-.01-.06-.02h0s-.03,0-.03,0h0s-.01,0-.01,0l-.08-.04h0s-.01,0-.01,0h-.02s0-.02,0-.02h0s0-.01,0-.01l-.09-.09h-.03s-.03-.03-.03-.03h-.01s-.03-.04-.03-.04h0s0-.02,0-.02h0s0-.02,0-.02l-.06-.06h0s0-.02,0-.02h0s0-.02,0-.02h0v-.02c-1.7-2.74-3.03-5.73-3.93-8.9-.87-3.07-1.34-6.32-1.34-9.66,0-9.75,3.95-18.59,10.35-24.98C16.74,3.95,25.57,0,35.32,0s18.59,3.96,24.98,10.35c6.39,6.39,10.35,15.22,10.35,24.98,0,8.68-3.14,16.64-8.34,22.79-5.07,6-12.1,10.28-20.11,11.86l.08.79c.05.5-.32.95-.82,1-.17.02-.34-.02-.48-.08l-2.49-1.12-.79-.36-3.3-1.48c-.46-.21-.66-.75-.46-1.2.07-.16.18-.29.32-.38l2.91-2.1.11-.08ZM39.79,65.39c-.04.12-.04.26-.02.4.09.5.56.83,1.06.74,7.5-1.31,14.09-5.27,18.79-10.86,4.62-5.51,7.4-12.61,7.4-20.35,0-8.75-3.55-16.68-9.29-22.41-5.73-5.73-13.66-9.28-22.41-9.28s-16.68,3.55-22.41,9.29c-5.73,5.73-9.29,13.66-9.29,22.41,0,2.93.4,5.77,1.15,8.47.7,2.52,1.7,4.92,2.96,7.15l-1.44,1.12c-1.36-2.36-2.45-4.9-3.21-7.57-.83-2.91-1.27-5.99-1.27-9.17,0-9.25,3.75-17.62,9.81-23.68C17.7,5.57,26.07,1.82,35.32,1.82s17.62,3.75,23.68,9.81c6.06,6.06,9.81,14.43,9.81,23.68,0,8.24-2.97,15.78-7.91,21.61-5.01,5.93-12.04,10.09-20.03,11.42-.46.07-.78.48-.76.93l-.89-.4-.79-.36-1.86-.83,1.65-1.19.1-.07,1.44-1.04ZM53.98,16.66c4.77,4.77,7.73,11.37,7.73,18.66s-2.95,13.88-7.73,18.66c-4.77,4.77-11.37,7.73-18.66,7.73s-13.88-2.95-18.66-7.73c-4.77-4.77-7.73-11.37-7.73-18.66s2.95-13.88,7.73-18.66c4.77-4.77,11.37-7.73,18.66-7.73s13.88,2.95,18.66,7.73ZM34.41,20.99c0-.5.41-.91.91-.91s.91.41.91.91v13.94l6.31,6.31c.36.36.36.94,0,1.29-.36.36-.94.36-1.29,0l-6.58-6.58c-.16-.16-.27-.39-.27-.65v-14.32Z"/>
  </g>
</svg>