<?xml version="1.0" encoding="UTF-8"?>
<svg id="_Слой_2" data-name="Слой 2" xmlns="http://www.w3.org/2000/svg" viewBox="0 0 74.87 94.73">
  <defs>
    <style>
      .cls-1 {
        fill: #fff;
        fill-rule: evenodd;
        stroke-width: 0px;
      }
    </style>
  </defs>
  <g id="Layer_1" data-name="Layer 1">
    <path class="cls-1" d="M48.49,91.7H11.55c-.82,0-1.56-.34-2.09-.88-.54-.54-.88-1.29-.88-2.11v-45.95L.2,21.22c-.29-.77-.25-1.58.05-2.27.3-.7.88-1.27,1.64-1.57L46.09.2c.77-.29,1.58-.25,2.27.05.7.3,1.27.88,1.57,1.64l5.33,13.71h9.01c.82,0,1.56.34,2.09.88.54.54.88,1.29.88,2.09v27.85l5.78,14.86c.29.77.25,1.58-.05,2.27-.3.7-.88,1.27-1.64,1.57l-1.71.66c.12.11.23.22.34.33,3.03,3.03,4.91,7.22,4.91,11.85s-1.88,8.82-4.91,11.85-7.22,4.91-11.85,4.91c-3.58,0-6.89-1.12-9.61-3.03h0ZM21.32,35.98h2.81c1.03,3.88,4.6,8.7,12.28,13.93.37.26.88.29,1.27.02,9.03-6.16,12.4-11.75,12.62-15.88.09-1.71-.34-3.18-1.12-4.37-.79-1.2-1.93-2.09-3.25-2.65-2.61-1.09-5.98-.84-8.88,1.12-2.88-1.97-6.26-2.21-8.88-1.12-1.33.56-2.46,1.45-3.25,2.65-.75,1.12-1.17,2.5-1.14,4.09h-2.48c-.61,0-1.11.5-1.11,1.11s.5,1.11,1.11,1.11h.02ZM26.03,33.75h2.77c.39,0,.74.2.94.5l1.18,1.77,1.66-4.05c.23-.57.88-.83,1.44-.6.34.14.57.42.65.74l1.89,6.54h4.94c.61,0,1.11.5,1.11,1.11s-.5,1.11-1.11,1.11h-5.76c-.48,0-.93-.32-1.06-.8l-1.25-4.32-1.22,2.96c-.07.23-.22.44-.44.59-.5.34-1.2.2-1.54-.3l-2.02-3.03h-1.77c1.05,3.19,4.2,7.19,10.63,11.68,7.89-5.52,10.85-10.28,11.03-13.74.06-1.21-.22-2.23-.76-3.04-.54-.81-1.32-1.43-2.25-1.82-2.12-.88-4.97-.57-7.32,1.32-.4.33-.98.35-1.4,0-2.36-1.89-5.2-2.21-7.33-1.32-.94.39-1.71,1-2.25,1.82-.5.78-.8,1.75-.77,2.88h0ZM33.47,83.74c-.61,0-1.11-.5-1.11-1.11s.5-1.11,1.11-1.11h8.26c-.18-.84-.3-1.71-.35-2.59h-7.91c-.61,0-1.11-.5-1.11-1.11s.5-1.11,1.11-1.11h7.94c.15-1.98.63-3.86,1.41-5.59h-9.35c-.61,0-1.11-.5-1.11-1.11s.5-1.11,1.11-1.11h10.55c.6-.94,1.29-1.8,2.05-2.59h-12.6c-.61,0-1.11-.5-1.11-1.11s.5-1.11,1.11-1.11h15.24c2.68-1.82,5.91-2.88,9.4-2.88.55,0,1.09.03,1.62.07V25.02c0-.21-.08-.39-.22-.53s-.33-.22-.53-.22H11.55c-.21,0-.39.09-.53.23-.14.14-.22.33-.22.53v63.72c0,.21.09.39.22.53.14.14.33.22.53.22h34.38c-1.55-1.63-2.77-3.58-3.56-5.73h-8.91v-.02ZM17.25,75.02c-.46,0-.88.19-1.18.48-.3.3-.48.71-.48,1.18v7.09c0,.46.19.88.48,1.18.3.3.71.48,1.18.48h7.09c.46,0,.88-.19,1.18-.48.3-.29.48-.71.48-1.18v-7.09c0-.45-.19-.88-.48-1.17-.3-.3-.71-.5-1.18-.5h-7.09ZM23.79,77.24h-5.98v5.98h5.98v-5.98ZM17.25,62.39c-.46,0-.88.19-1.18.48-.3.3-.48.71-.48,1.18v7.09c0,.46.19.88.48,1.18.29.3.71.48,1.18.48h7.09c.46,0,.88-.19,1.18-.48.3-.3.48-.71.48-1.18v-7.09c0-.45-.19-.88-.48-1.18-.3-.3-.71-.5-1.18-.5h-7.09ZM23.79,64.62h-5.98v5.98h5.98v-5.98ZM33.48,58.5h20.39c.61,0,1.11-.5,1.11-1.11s-.5-1.11-1.11-1.11h-20.39c-.61,0-1.11.5-1.11,1.11s.5,1.11,1.11,1.11ZM33.48,53.69h20.39c.61,0,1.11-.5,1.11-1.11s-.5-1.11-1.11-1.11h-20.39c-.61,0-1.11.5-1.11,1.11s.5,1.11,1.11,1.11ZM17.26,49.78c-.46,0-.88.19-1.18.48-.3.3-.48.71-.48,1.18v7.09c0,.46.19.88.48,1.18.3.3.71.48,1.18.48h7.09c.46,0,.88-.19,1.18-.48.3-.3.48-.71.48-1.18v-7.09c0-.45-.19-.88-.48-1.17-.3-.3-.71-.5-1.18-.5h-7.09ZM23.79,52h-5.98v5.98h5.98v-5.98ZM67.67,64.19l2.88-1.12c.19-.07.34-.22.41-.4.07-.18.09-.39.01-.58l-9.01-23.18v22.75c2.07.48,3.99,1.36,5.7,2.53h.01ZM68.41,67.69c-2.63-2.63-6.26-4.26-10.28-4.26-3.14,0-6.03.99-8.41,2.67h-.02c-.66.48-1.29,1.01-1.86,1.59-.86.86-1.61,1.83-2.24,2.88v.02c-1.29,2.17-2.02,4.68-2.02,7.38,0,4.01,1.63,7.65,4.26,10.29,2.63,2.63,6.26,4.26,10.28,4.26s7.65-1.63,10.28-4.26c2.63-2.63,4.26-6.26,4.26-10.29s-1.63-7.65-4.26-10.29h0ZM55.72,78.63l-2.07-2.07c-.48-.48-1.12-.73-1.75-.73s-1.26.24-1.75.73l-.32.32c-.48.48-.73,1.12-.73,1.75s.24,1.26.73,1.75l3.66,3.66c.61.61,1.41.91,2.21.91s1.6-.3,2.21-.91l8.48-8.48c.48-.48.73-1.12.73-1.75s-.24-1.26-.73-1.75l-.26-.25s-.03-.04-.05-.06c-.48-.48-1.12-.73-1.75-.73s-1.26.24-1.75.73l-6.89,6.89h.01ZM64.18,73.3l-7.68,7.68c-.43.43-1.14.43-1.57,0l-2.86-2.86s-.11-.07-.18-.07-.12.02-.17.07l-.32.32s-.07.11-.07.17.02.12.07.17l3.66,3.66c.18.18.41.26.64.26s.46-.09.64-.26l8.48-8.48s.07-.11.07-.18-.02-.12-.07-.17l-.26-.26s-.04-.03-.06-.05c-.05-.04-.11-.07-.18-.07s-.12.02-.17.07h.02ZM8.58,36.67v-11.66c0-.82.34-1.56.88-2.09.54-.54,1.29-.88,2.09-.88h43.84l-7.52-19.35c-.07-.19-.22-.34-.4-.41-.18-.07-.39-.09-.58-.02C32.48,8.27,17.3,13.76,2.69,19.44c-.19.07-.34.22-.41.4-.07.18-.09.39-.01.58l6.32,16.25h0ZM57.77,22.04h1.21c.82,0,1.56.34,2.09.88.54.54.88,1.29.88,2.09v7.78l3.07,7.91v-22.14c0-.21-.09-.39-.22-.53s-.33-.22-.53-.22h-8.15l1.64,4.23h0Z"/>
  </g>
</svg>