<?xml version="1.0" encoding="UTF-8"?>
<svg id="_Слой_2" data-name="Слой 2" xmlns="http://www.w3.org/2000/svg" viewBox="0 0 85.51 49.81">
  <defs>
    <style>
      .cls-1 {
        fill: #fff;
        stroke-width: 0px;
      }
    </style>
  </defs>
  <g id="Layer_1" data-name="Layer 1">
    <g>
      <path class="cls-1" d="M42.83,0c7.57,0,13.69,6.11,13.69,13.83s-6.11,13.69-13.69,13.69-13.83-6.11-13.83-13.69S35.11,0,42.83,0ZM42.83,2.91c-6.11,0-10.92,4.8-10.92,10.92s4.8,10.77,10.92,10.77,10.77-4.8,10.77-10.77-4.8-10.92-10.77-10.92Z"/>
      <path class="cls-1" d="M25.06,48.63c0,.73-.73,1.31-1.6,1.16-.73,0-1.31-.73-1.16-1.6,1.16-10.34,9.9-18.34,20.53-18.34s19.36,8.01,20.53,18.34c0,.87-.58,1.6-1.31,1.6-.87.15-1.6-.44-1.6-1.16-1.02-9.03-8.59-15.87-17.62-15.87s-16.74,6.84-17.76,15.87Z"/>
      <path class="cls-1" d="M69.76,11.79c5.97,0,10.77,4.8,10.77,10.63s-4.8,10.77-10.77,10.77-10.63-4.8-10.63-10.77,4.8-10.63,10.63-10.63ZM69.76,14.7c-4.22,0-7.72,3.49-7.72,7.72s3.49,7.86,7.72,7.86,7.86-3.49,7.86-7.86-3.49-7.72-7.86-7.72Z"/>
      <path class="cls-1" d="M63.94,39.02c-.73.44-1.6.15-2.04-.58-.29-.73,0-1.6.73-2.04,2.18-1.02,4.66-1.75,7.13-1.75,7.86,0,14.56,5.82,15.72,13.54.15.73-.44,1.6-1.16,1.6-.87.15-1.6-.44-1.75-1.16-.87-6.41-6.41-11.06-12.81-11.06-2.04,0-4.08.58-5.82,1.46Z"/>
      <path class="cls-1" d="M15.75,11.79c5.82,0,10.63,4.8,10.63,10.63s-4.8,10.77-10.63,10.77-10.77-4.8-10.77-10.77,4.8-10.63,10.77-10.63ZM15.75,14.7c-4.37,0-7.86,3.49-7.86,7.72s3.49,7.86,7.86,7.86,7.72-3.49,7.72-7.86-3.49-7.72-7.72-7.72Z"/>
      <path class="cls-1" d="M2.93,48.63c-.15.73-.87,1.31-1.6,1.16-.87,0-1.46-.87-1.31-1.6,1.16-7.72,7.86-13.54,15.72-13.54,2.48,0,4.95.73,7.28,1.75.58.44.87,1.31.58,2.04-.44.73-1.31,1.02-2.04.58-1.75-.87-3.79-1.46-5.82-1.46-6.41,0-11.94,4.66-12.81,11.06Z"/>
    </g>
  </g>
</svg>