<?xml version="1.0" encoding="UTF-8"?>
<svg id="telegram" data-name="Слой 2" xmlns="http://www.w3.org/2000/svg" viewBox="0 0 26.14 26.14">
  <defs>
    <style>
      .cls-1 {
        fill: #fff;
        stroke-width: 0px;
      }
    </style>
  </defs>
  <g id="Layer_1" data-name="Layer 1">
    <g>
      <path class="cls-1" d="M15.75,19.86c-.23,0-.46-.05-.66-.15-.1-.05-.18-.13-.27-.2-.56-.43-1.12-.86-1.68-1.29-.25-.19-.5-.38-.75-.58-.03-.02-.05-.03-.08,0-.4.37-.8.73-1.21,1.1-.12.11-.25.23-.37.34-.15.13-.32.19-.51.2-.15.01-.3-.01-.44-.08-.18-.08-.29-.22-.39-.39-.12-.2-.19-.42-.26-.64-.12-.38-.24-.77-.35-1.15-.2-.65-.4-1.3-.6-1.96-.02-.06-.05-.08-.1-.1-.78-.26-1.56-.52-2.33-.79-.19-.06-.38-.11-.55-.21-.23-.13-.43-.3-.56-.54-.19-.33-.15-.77.1-1.06.18-.22.42-.35.67-.45.57-.24,1.15-.48,1.72-.72.98-.41,1.97-.83,2.95-1.24.86-.36,1.71-.72,2.57-1.08.96-.4,1.91-.81,2.87-1.21.68-.29,1.37-.57,2.05-.86.19-.08.38-.13.58-.13.25,0,.47.07.67.22.21.17.33.39.38.66.03.21,0,.41-.03.61-.11.57-.22,1.14-.34,1.71-.07.38-.15.75-.22,1.13-.12.61-.24,1.21-.35,1.82-.1.51-.2,1.02-.3,1.54-.11.59-.23,1.17-.34,1.76-.1.51-.2,1.02-.3,1.54-.08.43-.17.86-.25,1.29-.03.16-.12.28-.22.41-.23.3-.54.46-.92.5-.05,0-.1,0-.15,0ZM10.27,17.96s.07-.06.1-.09c.34-.31.69-.63,1.03-.94.27-.25.55-.5.82-.75.03-.03.06-.03.09,0,.22.17.45.34.67.51.52.4,1.05.8,1.57,1.2.29.22.58.45.87.66.09.07.17.15.29.18.12.02.2-.03.22-.14.13-.68.27-1.36.4-2.04.1-.5.19-1,.29-1.5.13-.66.26-1.31.39-1.97.09-.48.19-.96.28-1.44.13-.66.26-1.31.39-1.97.11-.58.23-1.16.34-1.75,0-.02.01-.04,0-.06-.02-.01-.04,0-.05.01-.37.16-.75.31-1.12.47-.52.22-1.04.43-1.55.65-.61.26-1.23.52-1.84.78-.58.25-1.17.49-1.75.74-.66.28-1.32.56-1.98.83-.58.24-1.16.49-1.74.73-.62.26-1.24.52-1.85.78-.11.05-.22.09-.33.14.01.02.03.02.04.02.49.16.97.33,1.46.49.57.19,1.14.38,1.7.57.06.02.1.01.15-.02.44-.28.88-.55,1.33-.82.94-.58,1.88-1.16,2.82-1.75.87-.54,1.73-1.08,2.6-1.61.08-.05.17-.08.27-.08.04,0,.08.02.1.06.02.06.04.13,0,.2-.02.03-.05.06-.07.09-.18.18-.36.34-.55.51-.22.2-.44.41-.66.61-.33.31-.67.62-1,.93-.22.2-.44.41-.66.61-.34.32-.68.63-1.01.95-.21.2-.43.4-.64.6-.31.29-.62.58-.93.87-.04.04-.06.08-.07.13-.01.09-.03.17-.04.26-.04.24-.08.49-.11.73-.05.33-.1.66-.15.98-.03.2-.06.41-.1.62Z"/>
      <path class="cls-1" d="M13.07,0C5.85,0,0,5.85,0,13.07c0,7.22,5.85,13.07,13.07,13.07,7.22,0,13.07-5.85,13.07-13.07C26.14,5.85,20.29,0,13.07,0ZM13.07,24.66c-6.4,0-11.59-5.19-11.59-11.59S6.67,1.48,13.07,1.48c6.4,0,11.59,5.19,11.59,11.59s-5.19,11.59-11.59,11.59Z"/>
    </g>
  </g>
</svg>