<?xml version="1.0" encoding="UTF-8"?>
<svg id="whatsApp" data-name="Слой 2" xmlns="http://www.w3.org/2000/svg" viewBox="0 0 26.36 26.03">
  <defs>
    <style>
      .cls-1 {
        fill: #ffffff;
        stroke-width: 0px;
      }
    </style>
  </defs>
  <g id="Layer_1" data-name="Layer 1">
    <g>
      <path class="cls-1" d="M13.24,26.02c-1.83.02-3.58-.33-5.27-1.04-.18-.08-.36-.15-.52-.25-.3-.18-.6-.19-.93-.1-1.46.41-2.91.81-4.37,1.21-.38.11-.77.2-1.17.16-.68-.07-1.07-.6-.94-1.27.08-.39.26-.75.43-1.11.42-.89.82-1.79,1.23-2.68.08-.17.17-.35.26-.51.11-.19.1-.37,0-.56-.23-.41-.46-.81-.67-1.23-.57-1.13-.93-2.32-1.13-3.56-.2-1.25-.22-2.49-.05-3.74.26-1.93.91-3.71,1.98-5.33C4.05,3.05,6.75,1.13,10.2.37c4.49-1,8.5.03,11.93,3.12,1.95,1.76,3.24,3.94,3.85,6.5.88,3.69.24,7.13-1.87,10.28-1.44,2.14-3.37,3.72-5.74,4.74-1.37.59-2.8.93-4.29,1.01-.28.02-.56,0-.83,0ZM2.52,23.86c.1-.01.14-.02.19-.03.48-.12.95-.24,1.43-.37.71-.2,1.41-.47,2.15-.57.42-.06.82-.02,1.21.18.47.24.95.46,1.44.65,2.07.8,4.21,1.07,6.4.63,2.56-.51,4.75-1.71,6.52-3.64.83-.9,1.49-1.92,1.98-3.04.53-1.22.85-2.48.95-3.81.08-1.05.03-2.09-.18-3.13-.24-1.23-.71-2.37-1.36-3.44-1.02-1.68-2.32-3.08-4.01-4.1-1.53-.92-3.18-1.45-4.95-1.63-.93-.1-1.86-.07-2.78.06-1.01.15-1.98.43-2.93.83-1.86.79-3.44,1.95-4.67,3.55-1.36,1.76-2.13,3.75-2.34,5.97-.11,1.18-.03,2.35.23,3.5.33,1.45.91,2.8,1.73,4.04.17.25.31.52.36.82.07.38-.05.72-.21,1.05-.24.47-.49.94-.72,1.42-.16.33-.29.68-.45,1.06Z"/>
      <path class="cls-1" d="M16.59,18.99c-.93-.03-1.81-.27-2.66-.63-1.27-.54-2.4-1.29-3.43-2.19-1.25-1.09-2.3-2.35-3.07-3.83-.4-.76-.64-1.55-.61-2.41.03-.79.24-1.52.77-2.13.28-.32.62-.54,1.03-.66.56-.16,1.04-.02,1.4.43.13.16.25.34.34.52.22.47.45.94.63,1.42.24.64.07,1.21-.36,1.72-.13.15-.26.3-.37.46-.15.21-.18.44-.04.67.15.24.3.49.48.71.5.63,1.06,1.21,1.7,1.72.61.48,1.27.88,1.99,1.17.49.2.71.12,1-.33.13-.2.24-.4.37-.59.38-.55.83-.71,1.48-.53.56.16,1.07.44,1.57.75.19.12.39.25.56.4.45.4.56.91.31,1.46-.44.96-1.2,1.54-2.22,1.75-.28.06-.57.07-.86.11Z"/>
    </g>
  </g>
</svg>