<svg xmlns="http://www.w3.org/2000/svg" style="display: none;">
  <symbol id="clock" viewBox="0 0 70.65 71.77">
    <style>
            .cls-1 {
                fill: #fff;
                fill-rule: evenodd;
                stroke-width: 0px;
            }
    </style>
    <path class="cls-1" d="M36.24,10.78v5.36c0,.5-.41.91-.91.91s-.91-.41-.91-.91v-5.36c-6.42.23-12.21,2.93-16.45,7.18-4.24,4.24-6.94,10.03-7.18,16.45h5.36c.5,0,.91.41.91.91s-.41.91-.91.91h-5.36c.23,6.42,2.93,12.21,7.18,16.45,4.24,4.24,10.03,6.94,16.45,7.18v-5.36c0-.5.41-.91.91-.91s.91.41.91.91v5.36c6.42-.23,12.21-2.93,16.45-7.18,4.24-4.24,6.94-10.03,7.18-16.45h-5.36c-.5,0-.91-.41-.91-.91s.41-.91.91-.91h5.36c-.23-6.42-2.93-12.21-7.18-16.45-4.24-4.24-10.03-6.94-16.45-7.18ZM31.18,66.79c.5.07.85.52.79,1.02-.07.5-.52.85-1.02.79-1-.13-1.98-.3-2.96-.52-.99-.22-1.96-.48-2.9-.79-.48-.15-.74-.67-.59-1.15s.67-.74,1.15-.59c.9.29,1.82.54,2.74.74.91.21,1.85.38,2.8.5h0ZM22.27,64.26c.46.21.66.75.46,1.21-.21.46-.75.66-1.21.46-.9-.41-1.79-.86-2.68-1.36-.89-.5-1.74-1.04-2.55-1.6-.41-.29-.52-.86-.23-1.27.29-.41.86-.52,1.27-.23.79.54,1.59,1.05,2.41,1.51.8.45,1.65.88,2.54,1.29h0ZM14.45,59.24c.38.33.42.91.09,1.29-.33.38-.91.42-1.29.09-.8-.7-1.57-1.44-2.32-2.23-.74-.79-1.44-1.6-2.1-2.44-.31-.39-.24-.97.16-1.28.39-.31.97-.24,1.28.16.63.81,1.29,1.58,1.98,2.31.7.73,1.43,1.43,2.2,2.11h0ZM37.28,64.95l2.83-2.04c.41-.29.98-.2,1.27.21.1.14.15.29.17.45l.1.95c6.6-1.42,12.39-5.02,16.57-10.01,4.35-5.19,6.98-11.88,6.98-19.18,0-8.25-3.34-15.72-8.75-21.12-5.41-5.41-12.88-8.75-21.12-8.75s-15.72,3.34-21.12,8.75c-5.41,5.4-8.75,12.87-8.75,21.12,0,2.77.38,5.45,1.08,7.99.73,2.62,1.8,5.11,3.18,7.39.24.41.13.93-.24,1.2l-2.84,2.23-.03.03h-.01s0,.01,0,.01h-.01s0,.01,0,.01h-.02s-.04.04-.04.04h-.01s0,.01,0,.01h-.01s0,.01,0,.01c-.04.02-.08.04-.13.05l-.14.05h-.04s-.09,0-.09,0h-.02s-.08-.01-.08-.01h-.01s-.02,0-.02,0h-.02s0,0,0,0h-.01s-.02,0-.02,0h0s-.01,0-.01,0h0s-.01,0-.01,0c-.02,0-.04-.01-.06-.02h0s-.03,0-.03,0h0s-.01,0-.01,0l-.08-.04h0s-.01,0-.01,0h-.02s0-.02,0-.02h0s0-.01,0-.01l-.09-.09h-.03s-.03-.03-.03-.03h-.01s-.03-.04-.03-.04h0s0-.02,0-.02h0s0-.02,0-.02l-.06-.06h0s0-.02,0-.02h0s0-.02,0-.02h0v-.02c-1.7-2.74-3.03-5.73-3.93-8.9-.87-3.07-1.34-6.32-1.34-9.66,0-9.75,3.95-18.59,10.35-24.98C16.74,3.95,25.57,0,35.32,0s18.59,3.96,24.98,10.35c6.39,6.39,10.35,15.22,10.35,24.98,0,8.68-3.14,16.64-8.34,22.79-5.07,6-12.1,10.28-20.11,11.86l.08.79c.05.5-.32.95-.82,1-.17.02-.34-.02-.48-.08l-2.49-1.12-.79-.36-3.3-1.48c-.46-.21-.66-.75-.46-1.2.07-.16.18-.29.32-.38l2.91-2.1.11-.08ZM39.79,65.39c-.04.12-.04.26-.02.4.09.5.56.83,1.06.74,7.5-1.31,14.09-5.27,18.79-10.86,4.62-5.51,7.4-12.61,7.4-20.35,0-8.75-3.55-16.68-9.29-22.41-5.73-5.73-13.66-9.28-22.41-9.28s-16.68,3.55-22.41,9.29c-5.73,5.73-9.29,13.66-9.29,22.41,0,2.93.4,5.77,1.15,8.47.7,2.52,1.7,4.92,2.96,7.15l-1.44,1.12c-1.36-2.36-2.45-4.9-3.21-7.57-.83-2.91-1.27-5.99-1.27-9.17,0-9.25,3.75-17.62,9.81-23.68C17.7,5.57,26.07,1.82,35.32,1.82s17.62,3.75,23.68,9.81c6.06,6.06,9.81,14.43,9.81,23.68,0,8.24-2.97,15.78-7.91,21.61-5.01,5.93-12.04,10.09-20.03,11.42-.46.07-.78.48-.76.93l-.89-.4-.79-.36-1.86-.83,1.65-1.19.1-.07,1.44-1.04ZM53.98,16.66c4.77,4.77,7.73,11.37,7.73,18.66s-2.95,13.88-7.73,18.66c-4.77,4.77-11.37,7.73-18.66,7.73s-13.88-2.95-18.66-7.73c-4.77-4.77-7.73-11.37-7.73-18.66s2.95-13.88,7.73-18.66c4.77-4.77,11.37-7.73,18.66-7.73s13.88,2.95,18.66,7.73ZM34.41,20.99c0-.5.41-.91.91-.91s.91.41.91.91v13.94l6.31,6.31c.36.36.36.94,0,1.29-.36.36-.94.36-1.29,0l-6.58-6.58c-.16-.16-.27-.39-.27-.65v-14.32Z"/>
  </symbol>
  <symbol id="health" viewBox="0 0 74.87 94.73">
    <defs>
      <style>
      .cls-1 {
        fill: #fff;
        fill-rule: evenodd;
        stroke-width: 0px;
      }
      </style>
    </defs>
    <g id="Layer_1" data-name="Layer 1">
      <path class="cls-1" d="M48.49,91.7H11.55c-.82,0-1.56-.34-2.09-.88-.54-.54-.88-1.29-.88-2.11v-45.95L.2,21.22c-.29-.77-.25-1.58.05-2.27.3-.7.88-1.27,1.64-1.57L46.09.2c.77-.29,1.58-.25,2.27.05.7.3,1.27.88,1.57,1.64l5.33,13.71h9.01c.82,0,1.56.34,2.09.88.54.54.88,1.29.88,2.09v27.85l5.78,14.86c.29.77.25,1.58-.05,2.27-.3.7-.88,1.27-1.64,1.57l-1.71.66c.12.11.23.22.34.33,3.03,3.03,4.91,7.22,4.91,11.85s-1.88,8.82-4.91,11.85-7.22,4.91-11.85,4.91c-3.58,0-6.89-1.12-9.61-3.03h0ZM21.32,35.98h2.81c1.03,3.88,4.6,8.7,12.28,13.93.37.26.88.29,1.27.02,9.03-6.16,12.4-11.75,12.62-15.88.09-1.71-.34-3.18-1.12-4.37-.79-1.2-1.93-2.09-3.25-2.65-2.61-1.09-5.98-.84-8.88,1.12-2.88-1.97-6.26-2.21-8.88-1.12-1.33.56-2.46,1.45-3.25,2.65-.75,1.12-1.17,2.5-1.14,4.09h-2.48c-.61,0-1.11.5-1.11,1.11s.5,1.11,1.11,1.11h.02ZM26.03,33.75h2.77c.39,0,.74.2.94.5l1.18,1.77,1.66-4.05c.23-.57.88-.83,1.44-.6.34.14.57.42.65.74l1.89,6.54h4.94c.61,0,1.11.5,1.11,1.11s-.5,1.11-1.11,1.11h-5.76c-.48,0-.93-.32-1.06-.8l-1.25-4.32-1.22,2.96c-.07.23-.22.44-.44.59-.5.34-1.2.2-1.54-.3l-2.02-3.03h-1.77c1.05,3.19,4.2,7.19,10.63,11.68,7.89-5.52,10.85-10.28,11.03-13.74.06-1.21-.22-2.23-.76-3.04-.54-.81-1.32-1.43-2.25-1.82-2.12-.88-4.97-.57-7.32,1.32-.4.33-.98.35-1.4,0-2.36-1.89-5.2-2.21-7.33-1.32-.94.39-1.71,1-2.25,1.82-.5.78-.8,1.75-.77,2.88h0ZM33.47,83.74c-.61,0-1.11-.5-1.11-1.11s.5-1.11,1.11-1.11h8.26c-.18-.84-.3-1.71-.35-2.59h-7.91c-.61,0-1.11-.5-1.11-1.11s.5-1.11,1.11-1.11h7.94c.15-1.98.63-3.86,1.41-5.59h-9.35c-.61,0-1.11-.5-1.11-1.11s.5-1.11,1.11-1.11h10.55c.6-.94,1.29-1.8,2.05-2.59h-12.6c-.61,0-1.11-.5-1.11-1.11s.5-1.11,1.11-1.11h15.24c2.68-1.82,5.91-2.88,9.4-2.88.55,0,1.09.03,1.62.07V25.02c0-.21-.08-.39-.22-.53s-.33-.22-.53-.22H11.55c-.21,0-.39.09-.53.23-.14.14-.22.33-.22.53v63.72c0,.21.09.39.22.53.14.14.33.22.53.22h34.38c-1.55-1.63-2.77-3.58-3.56-5.73h-8.91v-.02ZM17.25,75.02c-.46,0-.88.19-1.18.48-.3.3-.48.71-.48,1.18v7.09c0,.46.19.88.48,1.18.3.3.71.48,1.18.48h7.09c.46,0,.88-.19,1.18-.48.3-.29.48-.71.48-1.18v-7.09c0-.45-.19-.88-.48-1.17-.3-.3-.71-.5-1.18-.5h-7.09ZM23.79,77.24h-5.98v5.98h5.98v-5.98ZM17.25,62.39c-.46,0-.88.19-1.18.48-.3.3-.48.71-.48,1.18v7.09c0,.46.19.88.48,1.18.29.3.71.48,1.18.48h7.09c.46,0,.88-.19,1.18-.48.3-.3.48-.71.48-1.18v-7.09c0-.45-.19-.88-.48-1.18-.3-.3-.71-.5-1.18-.5h-7.09ZM23.79,64.62h-5.98v5.98h5.98v-5.98ZM33.48,58.5h20.39c.61,0,1.11-.5,1.11-1.11s-.5-1.11-1.11-1.11h-20.39c-.61,0-1.11.5-1.11,1.11s.5,1.11,1.11,1.11ZM33.48,53.69h20.39c.61,0,1.11-.5,1.11-1.11s-.5-1.11-1.11-1.11h-20.39c-.61,0-1.11.5-1.11,1.11s.5,1.11,1.11,1.11ZM17.26,49.78c-.46,0-.88.19-1.18.48-.3.3-.48.71-.48,1.18v7.09c0,.46.19.88.48,1.18.3.3.71.48,1.18.48h7.09c.46,0,.88-.19,1.18-.48.3-.3.48-.71.48-1.18v-7.09c0-.45-.19-.88-.48-1.17-.3-.3-.71-.5-1.18-.5h-7.09ZM23.79,52h-5.98v5.98h5.98v-5.98ZM67.67,64.19l2.88-1.12c.19-.07.34-.22.41-.4.07-.18.09-.39.01-.58l-9.01-23.18v22.75c2.07.48,3.99,1.36,5.7,2.53h.01ZM68.41,67.69c-2.63-2.63-6.26-4.26-10.28-4.26-3.14,0-6.03.99-8.41,2.67h-.02c-.66.48-1.29,1.01-1.86,1.59-.86.86-1.61,1.83-2.24,2.88v.02c-1.29,2.17-2.02,4.68-2.02,7.38,0,4.01,1.63,7.65,4.26,10.29,2.63,2.63,6.26,4.26,10.28,4.26s7.65-1.63,10.28-4.26c2.63-2.63,4.26-6.26,4.26-10.29s-1.63-7.65-4.26-10.29h0ZM55.72,78.63l-2.07-2.07c-.48-.48-1.12-.73-1.75-.73s-1.26.24-1.75.73l-.32.32c-.48.48-.73,1.12-.73,1.75s.24,1.26.73,1.75l3.66,3.66c.61.61,1.41.91,2.21.91s1.6-.3,2.21-.91l8.48-8.48c.48-.48.73-1.12.73-1.75s-.24-1.26-.73-1.75l-.26-.25s-.03-.04-.05-.06c-.48-.48-1.12-.73-1.75-.73s-1.26.24-1.75.73l-6.89,6.89h.01ZM64.18,73.3l-7.68,7.68c-.43.43-1.14.43-1.57,0l-2.86-2.86s-.11-.07-.18-.07-.12.02-.17.07l-.32.32s-.07.11-.07.17.02.12.07.17l3.66,3.66c.18.18.41.26.64.26s.46-.09.64-.26l8.48-8.48s.07-.11.07-.18-.02-.12-.07-.17l-.26-.26s-.04-.03-.06-.05c-.05-.04-.11-.07-.18-.07s-.12.02-.17.07h.02ZM8.58,36.67v-11.66c0-.82.34-1.56.88-2.09.54-.54,1.29-.88,2.09-.88h43.84l-7.52-19.35c-.07-.19-.22-.34-.4-.41-.18-.07-.39-.09-.58-.02C32.48,8.27,17.3,13.76,2.69,19.44c-.19.07-.34.22-.41.4-.07.18-.09.39-.01.58l6.32,16.25h0ZM57.77,22.04h1.21c.82,0,1.56.34,2.09.88.54.54.88,1.29.88,2.09v7.78l3.07,7.91v-22.14c0-.21-.09-.39-.22-.53s-.33-.22-.53-.22h-8.15l1.64,4.23h0Z"/>
    </g>
  </symbol>
  <symbol id="people" viewBox="0 0 85.51 49.81">
    <defs>
      <style>
      .cls-1 {
        fill: #fff;
        stroke-width: 0px;
      }
      </style>
    </defs>
    <g id="Layer_1" data-name="Layer 1">
      <g>
        <path class="cls-1" d="M42.83,0c7.57,0,13.69,6.11,13.69,13.83s-6.11,13.69-13.69,13.69-13.83-6.11-13.83-13.69S35.11,0,42.83,0ZM42.83,2.91c-6.11,0-10.92,4.8-10.92,10.92s4.8,10.77,10.92,10.77,10.77-4.8,10.77-10.77-4.8-10.92-10.77-10.92Z"/>
        <path class="cls-1" d="M25.06,48.63c0,.73-.73,1.31-1.6,1.16-.73,0-1.31-.73-1.16-1.6,1.16-10.34,9.9-18.34,20.53-18.34s19.36,8.01,20.53,18.34c0,.87-.58,1.6-1.31,1.6-.87.15-1.6-.44-1.6-1.16-1.02-9.03-8.59-15.87-17.62-15.87s-16.74,6.84-17.76,15.87Z"/>
        <path class="cls-1" d="M69.76,11.79c5.97,0,10.77,4.8,10.77,10.63s-4.8,10.77-10.77,10.77-10.63-4.8-10.63-10.77,4.8-10.63,10.63-10.63ZM69.76,14.7c-4.22,0-7.72,3.49-7.72,7.72s3.49,7.86,7.72,7.86,7.86-3.49,7.86-7.86-3.49-7.72-7.86-7.72Z"/>
        <path class="cls-1" d="M63.94,39.02c-.73.44-1.6.15-2.04-.58-.29-.73,0-1.6.73-2.04,2.18-1.02,4.66-1.75,7.13-1.75,7.86,0,14.56,5.82,15.72,13.54.15.73-.44,1.6-1.16,1.6-.87.15-1.6-.44-1.75-1.16-.87-6.41-6.41-11.06-12.81-11.06-2.04,0-4.08.58-5.82,1.46Z"/>
        <path class="cls-1" d="M15.75,11.79c5.82,0,10.63,4.8,10.63,10.63s-4.8,10.77-10.63,10.77-10.77-4.8-10.77-10.77,4.8-10.63,10.77-10.63ZM15.75,14.7c-4.37,0-7.86,3.49-7.86,7.72s3.49,7.86,7.86,7.86,7.72-3.49,7.72-7.86-3.49-7.72-7.72-7.72Z"/>
        <path class="cls-1" d="M2.93,48.63c-.15.73-.87,1.31-1.6,1.16-.87,0-1.46-.87-1.31-1.6,1.16-7.72,7.86-13.54,15.72-13.54,2.48,0,4.95.73,7.28,1.75.58.44.87,1.31.58,2.04-.44.73-1.31,1.02-2.04.58-1.75-.87-3.79-1.46-5.82-1.46-6.41,0-11.94,4.66-12.81,11.06Z"/>
      </g>
    </g>
  </symbol>
  <symbol id="telegram" viewBox="0 0 26.14 26.14">
    <defs>
      <style>
      .cls-1 {
        fill: #fff;
        stroke-width: 0px;
      }
      </style>
    </defs>
    <g id="Layer_1" data-name="Layer 1">
      <g>
        <path class="cls-1" d="M15.75,19.86c-.23,0-.46-.05-.66-.15-.1-.05-.18-.13-.27-.2-.56-.43-1.12-.86-1.68-1.29-.25-.19-.5-.38-.75-.58-.03-.02-.05-.03-.08,0-.4.37-.8.73-1.21,1.1-.12.11-.25.23-.37.34-.15.13-.32.19-.51.2-.15.01-.3-.01-.44-.08-.18-.08-.29-.22-.39-.39-.12-.2-.19-.42-.26-.64-.12-.38-.24-.77-.35-1.15-.2-.65-.4-1.3-.6-1.96-.02-.06-.05-.08-.1-.1-.78-.26-1.56-.52-2.33-.79-.19-.06-.38-.11-.55-.21-.23-.13-.43-.3-.56-.54-.19-.33-.15-.77.1-1.06.18-.22.42-.35.67-.45.57-.24,1.15-.48,1.72-.72.98-.41,1.97-.83,2.95-1.24.86-.36,1.71-.72,2.57-1.08.96-.4,1.91-.81,2.87-1.21.68-.29,1.37-.57,2.05-.86.19-.08.38-.13.58-.13.25,0,.47.07.67.22.21.17.33.39.38.66.03.21,0,.41-.03.61-.11.57-.22,1.14-.34,1.71-.07.38-.15.75-.22,1.13-.12.61-.24,1.21-.35,1.82-.1.51-.2,1.02-.3,1.54-.11.59-.23,1.17-.34,1.76-.1.51-.2,1.02-.3,1.54-.08.43-.17.86-.25,1.29-.03.16-.12.28-.22.41-.23.3-.54.46-.92.5-.05,0-.1,0-.15,0ZM10.27,17.96s.07-.06.1-.09c.34-.31.69-.63,1.03-.94.27-.25.55-.5.82-.75.03-.03.06-.03.09,0,.22.17.45.34.67.51.52.4,1.05.8,1.57,1.2.29.22.58.45.87.66.09.07.17.15.29.18.12.02.2-.03.22-.14.13-.68.27-1.36.4-2.04.1-.5.19-1,.29-1.5.13-.66.26-1.31.39-1.97.09-.48.19-.96.28-1.44.13-.66.26-1.31.39-1.97.11-.58.23-1.16.34-1.75,0-.02.01-.04,0-.06-.02-.01-.04,0-.05.01-.37.16-.75.31-1.12.47-.52.22-1.04.43-1.55.65-.61.26-1.23.52-1.84.78-.58.25-1.17.49-1.75.74-.66.28-1.32.56-1.98.83-.58.24-1.16.49-1.74.73-.62.26-1.24.52-1.85.78-.11.05-.22.09-.33.14.01.02.03.02.04.02.49.16.97.33,1.46.49.57.19,1.14.38,1.7.57.06.02.1.01.15-.02.44-.28.88-.55,1.33-.82.94-.58,1.88-1.16,2.82-1.75.87-.54,1.73-1.08,2.6-1.61.08-.05.17-.08.27-.08.04,0,.08.02.1.06.02.06.04.13,0,.2-.02.03-.05.06-.07.09-.18.18-.36.34-.55.51-.22.2-.44.41-.66.61-.33.31-.67.62-1,.93-.22.2-.44.41-.66.61-.34.32-.68.63-1.01.95-.21.2-.43.4-.64.6-.31.29-.62.58-.93.87-.04.04-.06.08-.07.13-.01.09-.03.17-.04.26-.04.24-.08.49-.11.73-.05.33-.1.66-.15.98-.03.2-.06.41-.1.62Z"/>
        <path class="cls-1" d="M13.07,0C5.85,0,0,5.85,0,13.07c0,7.22,5.85,13.07,13.07,13.07,7.22,0,13.07-5.85,13.07-13.07C26.14,5.85,20.29,0,13.07,0ZM13.07,24.66c-6.4,0-11.59-5.19-11.59-11.59S6.67,1.48,13.07,1.48c6.4,0,11.59,5.19,11.59,11.59s-5.19,11.59-11.59,11.59Z"/>
      </g>
    </g>
  </symbol>
  <symbol id="whatsApp" viewBox="0 0 26.36 26.03">
    <defs>
      <style>
      .cls-1 {
        fill: #ffffff;
        stroke-width: 0px;
      }
      </style>
    </defs>
    <g id="Layer_1" data-name="Layer 1">
      <g>
        <path class="cls-1" d="M13.24,26.02c-1.83.02-3.58-.33-5.27-1.04-.18-.08-.36-.15-.52-.25-.3-.18-.6-.19-.93-.1-1.46.41-2.91.81-4.37,1.21-.38.11-.77.2-1.17.16-.68-.07-1.07-.6-.94-1.27.08-.39.26-.75.43-1.11.42-.89.82-1.79,1.23-2.68.08-.17.17-.35.26-.51.11-.19.1-.37,0-.56-.23-.41-.46-.81-.67-1.23-.57-1.13-.93-2.32-1.13-3.56-.2-1.25-.22-2.49-.05-3.74.26-1.93.91-3.71,1.98-5.33C4.05,3.05,6.75,1.13,10.2.37c4.49-1,8.5.03,11.93,3.12,1.95,1.76,3.24,3.94,3.85,6.5.88,3.69.24,7.13-1.87,10.28-1.44,2.14-3.37,3.72-5.74,4.74-1.37.59-2.8.93-4.29,1.01-.28.02-.56,0-.83,0ZM2.52,23.86c.1-.01.14-.02.19-.03.48-.12.95-.24,1.43-.37.71-.2,1.41-.47,2.15-.57.42-.06.82-.02,1.21.18.47.24.95.46,1.44.65,2.07.8,4.21,1.07,6.4.63,2.56-.51,4.75-1.71,6.52-3.64.83-.9,1.49-1.92,1.98-3.04.53-1.22.85-2.48.95-3.81.08-1.05.03-2.09-.18-3.13-.24-1.23-.71-2.37-1.36-3.44-1.02-1.68-2.32-3.08-4.01-4.1-1.53-.92-3.18-1.45-4.95-1.63-.93-.1-1.86-.07-2.78.06-1.01.15-1.98.43-2.93.83-1.86.79-3.44,1.95-4.67,3.55-1.36,1.76-2.13,3.75-2.34,5.97-.11,1.18-.03,2.35.23,3.5.33,1.45.91,2.8,1.73,4.04.17.25.31.52.36.82.07.38-.05.72-.21,1.05-.24.47-.49.94-.72,1.42-.16.33-.29.68-.45,1.06Z"/>
        <path class="cls-1" d="M16.59,18.99c-.93-.03-1.81-.27-2.66-.63-1.27-.54-2.4-1.29-3.43-2.19-1.25-1.09-2.3-2.35-3.07-3.83-.4-.76-.64-1.55-.61-2.41.03-.79.24-1.52.77-2.13.28-.32.62-.54,1.03-.66.56-.16,1.04-.02,1.4.43.13.16.25.34.34.52.22.47.45.94.63,1.42.24.64.07,1.21-.36,1.72-.13.15-.26.3-.37.46-.15.21-.18.44-.04.67.15.24.3.49.48.71.5.63,1.06,1.21,1.7,1.72.61.48,1.27.88,1.99,1.17.49.2.71.12,1-.33.13-.2.24-.4.37-.59.38-.55.83-.71,1.48-.53.56.16,1.07.44,1.57.75.19.12.39.25.56.4.45.4.56.91.31,1.46-.44.96-1.2,1.54-2.22,1.75-.28.06-.57.07-.86.11Z"/>
      </g>
    </g>
  </symbol>
</svg>
